Coordinates
version=1
nRows=24
nColumns=24
inDegrees=yes

Units are S.I. units (second, meters, Newtons, ...)
Angles are in degrees.

endheader
time	pelvis_tilt	pelvis_list	pelvis_rotation	pelvis_tx	pelvis_ty	pelvis_tz	hip_flexion_r	hip_adduction_r	hip_rotation_r	knee_angle_r	ankle_angle_r	subtalar_angle_r	mtp_angle_r	hip_flexion_l	hip_adduction_l	hip_rotation_l	knee_angle_l	ankle_angle_l	subtalar_angle_l	mtp_angle_l	lumbar_extension	lumbar_bending	lumbar_rotation
      1.99000000	     -3.17256220	      2.62615536	     -9.96449830	      0.08745098	      0.96636411	     -0.01514395	     17.11901612	    -10.08848779	      1.44996808	    -56.75569506	      2.53389249	      0.00000000	      0.00000000	      2.31100082	      3.35472589	    -12.06039775	     -2.41944780	      4.61290052	      0.00000000	      0.00000000	     -1.21881045	     -4.58892486	     -2.24727739
      2.00000000	     -3.21775965	      2.28464348	    -10.04871010	      0.08615704	      0.96679538	     -0.01589224	     17.79470949	     -9.54068051	      1.34798800	    -55.94188636	      3.49120053	      0.00000000	      0.00000000	      1.86616906	      3.11460815	    -12.13657107	     -2.37791345	      4.81225685	      0.00000000	      0.00000000	     -1.25920279	     -4.22982374	     -2.46971839
      2.01000000	     -3.24080092	      2.17358087	    -10.13845702	      0.08484988	      0.96716029	     -0.01664698	     18.43815717	     -9.25696309	      1.29737230	    -54.83907691	      3.96377464	      0.00000000	      0.00000000	      1.46274279	      3.12104165	    -12.18945629	     -2.38894520	      4.97715217	      0.00000000	      0.00000000	     -1.28012308	     -4.13827866	     -2.69040543
      2.02000000	     -3.33408314	      1.75192727	    -10.18379106	      0.08350999	      0.96739070	     -0.01729964	     18.97396240	     -8.61233302	      1.13526413	    -53.51506256	      4.84840347	      0.00000000	      0.00000000	      1.08016841	      2.78477155	    -12.29846189	     -2.39565397	      5.28533167	      0.00000000	      0.00000000	     -1.29728981	     -3.68329433	     -2.90533308
      2.03000000	     -3.38111860	      1.72300482	    -10.28367723	      0.08213309	      0.96749354	     -0.01802019	     19.56803916	     -8.43723662	      1.04727992	    -52.05832536	      5.17391096	      0.00000000	      0.00000000	      0.72429640	      2.87496489	    -12.35889066	     -2.41362489	      5.47367288	      0.00000000	      0.00000000	     -1.29994909	     -3.66679649	     -3.05881907
      2.04000000	     -3.48041844	      1.29081684	    -10.30591431	      0.08073845	      0.96757388	     -0.01855478	     19.95827846	     -7.83058178	      0.77973031	    -50.27113057	      5.64920761	      0.00000000	      0.00000000	      0.38865786	      2.50350296	    -12.45605241	     -2.50966014	      5.88163247	      0.00000000	      0.00000000	     -1.32788919	     -3.20380638	     -3.27477200
      2.05000000	     -3.54423017	      1.35851302	    -10.43086774	      0.07929331	      0.96740768	     -0.01910261	     20.50843660	     -7.76727249	      0.69611422	    -48.52929112	      5.86929758	      0.00000000	      0.00000000	      0.07885656	      2.68038934	    -12.50526837	     -2.54133487	      6.05743618	      0.00000000	      0.00000000	     -1.30316706	     -3.29566497	     -3.36646450
      2.06000000	     -3.69623431	      0.98745752	    -10.45181152	      0.07789741	      0.96725269	     -0.01955399	     20.84724226	     -7.25796979	      0.38707904	    -46.39804848	      6.01069905	      0.00000000	      0.00000000	     -0.19667578	      2.36186998	    -12.60565917	     -2.61567386	      6.42759143	      0.00000000	      0.00000000	     -1.26940811	     -2.88056946	     -3.55263763
      2.07000000	     -3.77564848	      1.09979995	    -10.57562156	      0.07639964	      0.96688053	     -0.01994198	     21.32408573	     -7.26531815	      0.27605503	    -44.39617321	      6.12424241	      0.00000000	      0.00000000	     -0.47143685	      2.57373919	    -12.65574368	     -2.66126458	      6.64132626	      0.00000000	      0.00000000	     -1.22731398	     -3.02773650	     -3.60287813
      2.08000000	     -3.89409075	      1.13647328	    -10.67913839	      0.07494531	      0.96643424	     -0.02025739	     21.73810936	     -7.20155527	      0.10458558	    -42.23065305	      6.14219993	      0.00000000	      0.00000000	     -0.72678877	      2.69685043	    -12.72481889	     -2.68794538	      6.89191591	      0.00000000	      0.00000000	     -1.15119127	     -3.07822445	     -3.67131661
      2.09000000	     -4.06817627	      0.69239146	    -10.63938808	      0.07355524	      0.96616997	     -0.02045840	     21.86133384	     -6.67549038	     -0.36254479	    -39.62044189	      5.60513462	      0.00000000	      0.00000000	     -0.96400264	      2.26751016	    -12.77080693	     -2.82877247	      7.30406913	      0.00000000	      0.00000000	     -1.11590930	     -2.59432462	     -3.86655431
      2.10000000	     -4.16595496	      0.85734306	    -10.80487620	      0.07207488	      0.96556946	     -0.02055045	     22.24551334	     -6.74778028	     -0.51496887	    -37.39827270	      5.70522072	      0.00000000	      0.00000000	     -1.21433518	      2.52065537	    -12.78108702	     -2.88316588	      7.53727438	      0.00000000	      0.00000000	     -1.03412037	     -2.79701840	     -3.82206785
      2.11000000	     -4.30452521	      0.97041820	    -10.93668158	      0.07065952	      0.96492983	     -0.02052766	     22.57488596	     -6.76457794	     -0.71752188	    -35.03435233	      5.66377359	      0.00000000	      0.00000000	     -1.45047512	      2.70571350	    -12.81753398	     -2.89587469	      7.78696185	      0.00000000	      0.00000000	     -0.90539316	     -2.94034784	     -3.80200654
      2.12000000	     -4.41481853	      0.43610594	    -10.83824494	      0.06931803	      0.96471978	     -0.02045647	     22.38762013	     -6.18110936	     -1.30761904	    -32.08350294	      4.79099620	      0.00000000	      0.00000000	     -1.77973913	      2.17199159	    -12.78802697	     -3.03369558	      8.19986244	      0.00000000	      0.00000000	     -0.96334771	     -2.38214241	     -4.02110714
      2.13000000	     -4.56440982	      0.39501235	    -10.92757164	      0.06792039	      0.96413177	     -0.02021192	     22.54179388	     -6.03092945	     -1.62758257	    -29.50364444	      4.39311381	      0.00000000	      0.00000000	     -2.04605274	      2.17567758	    -12.80999482	     -3.01761792	      8.39770082	      0.00000000	      0.00000000	     -0.85565453	     -2.36222599	     -4.01758034
      2.14000000	     -4.72101111	      0.34210043	    -11.01889775	      0.06654371	      0.96352267	     -0.01982585	     22.65931424	     -5.84695206	     -1.96876417	    -26.90027777	      4.01881812	      0.00000000	      0.00000000	     -2.30893424	      2.15374804	    -12.82722729	     -3.01082504	      8.61255642	      0.00000000	      0.00000000	     -0.74136558	     -2.33243648	     -3.98567402
      2.15000000	     -4.88551496	      0.30116445	    -11.10748870	      0.06519313	      0.96287099	     -0.01934420	     22.76039808	     -5.65364661	     -2.29237918	    -24.30548008	      3.61066050	      0.00000000	      0.00000000	     -2.56684641	      2.13973922	    -12.84527060	     -2.99530160	      8.80388894	      0.00000000	      0.00000000	     -0.60717209	     -2.31589202	     -3.94482779
      2.16000000	     -4.99125195	      0.16416843	    -11.15605199	      0.06391055	      0.96232888	     -0.01876990	     22.70747082	     -5.36398705	     -2.70434251	    -21.65721227	      3.16692116	      0.00000000	      0.00000000	     -2.91198940	      2.02409154	    -12.86041168	     -2.97375073	      9.04245627	      0.00000000	      0.00000000	     -0.56437135	     -2.21189295	     -3.92270467
      2.17000000	     -5.17800199	      0.13451081	    -11.24147923	      0.06260679	      0.96161493	     -0.01806369	     22.78806353	     -5.12932809	     -3.03222233	    -19.10697052	      2.63278715	      0.00000000	      0.00000000	     -3.15486407	      2.00149385	    -12.89234095	     -2.94618471	      9.18322695	      0.00000000	      0.00000000	     -0.39905415	     -2.20723009	     -3.85083492
      2.18000000	     -5.34709323	      0.07565182	    -11.29559381	      0.06136335	      0.96092785	     -0.01727038	     22.80950835	     -4.85286079	     -3.37681084	    -16.58064165	      2.04963186	      0.00000000	      0.00000000	     -3.41379656	      1.93742209	    -12.91837996	     -2.94226842	      9.34163093	      0.00000000	      0.00000000	     -0.26149857	     -2.17810417	     -3.79620326
      2.19000000	     -5.49489803	      0.00406827	    -11.31297691	      0.06018960	      0.96026684	     -0.01642881	     22.77808618	     -4.55749657	     -3.73759472	    -14.10343751	      1.42742478	      0.00000000	      0.00000000	     -3.69657935	      1.85479642	    -12.94883261	     -2.94583568	      9.50505337	      0.00000000	      0.00000000	     -0.15282522	     -2.13924700	     -3.76614564
      2.20000000	     -5.65451501	     -0.02414545	    -11.32074731	      0.05902706	      0.95954984	     -0.01549800	     22.76538728	     -4.28670921	     -4.03767793	    -11.71657045	      0.74280138	      0.00000000	      0.00000000	     -3.93727552	      1.79688525	    -12.95152637	     -2.99535763	      9.61505730	      0.00000000	      0.00000000	     -0.02502445	     -2.14637111	     -3.72650057
      2.21000000	     -5.81494809	     -0.01131552	    -11.30310495	      0.05797286	      0.95879347	     -0.01450731	     22.77164676	     -4.05019185	     -4.30633924	     -9.48845915	      0.16626399	      0.00000000	      0.00000000	     -4.16968753	      1.77871504	    -12.97644736	     -3.05647699	      9.73412446	      0.00000000	      0.00000000	      0.11931033	     -2.19871558	     -3.72517220
      2.22000000	     -5.94000005	     -0.05506679	    -11.24502055	      0.05694433	      0.95809278	     -0.01354811	     22.70918313	     -3.77069817	     -4.66485808	     -7.34308915	     -0.60593235	      0.00000000	      0.00000000	     -4.42497596	      1.68934364	    -12.96481242	     -3.16476531	      9.83031248	      0.00000000	      0.00000000	      0.20012882	     -2.17739472	     -3.73188212
